<svg width="107" height="109" viewBox="0 0 107 109" fill="none" xmlns="http://www.w3.org/2000/svg">
<path d="M90.7856 23.3651C91.3825 22.7695 92.0721 22.3017 92.8355 21.9751C92.9964 21.907 93.1577 21.8453 93.3164 21.7924C94.4552 21.409 95.6781 21.3453 96.8534 21.6092C97.0837 21.6604 97.3089 21.7253 97.5302 21.8003L73.9865 45.3451C72.7511 46.5805 71.1083 47.2607 69.3619 47.2607C67.9711 47.2607 66.6455 46.8293 65.5391 46.029C67.7399 45.5122 69.7583 44.3928 71.3958 42.7554L90.7856 23.3651ZM64.7827 40.2607C64.737 40.2763 64.6903 40.2909 64.6449 40.3052C64.6258 40.3113 64.6059 40.3176 64.5873 40.3229C64.5259 40.3411 64.465 40.3584 64.4036 40.3753C64.385 40.3802 64.3673 40.3847 64.3495 40.3891C64.3015 40.4015 64.254 40.4131 64.2073 40.4243C64.185 40.4291 64.1637 40.434 64.1428 40.4393C64.0807 40.4531 64.0185 40.4665 63.9562 40.4784C63.9437 40.4807 63.9327 40.4824 63.9206 40.4847C63.8674 40.4949 63.8127 40.5042 63.7593 40.5131C63.7371 40.5162 63.7162 40.5197 63.694 40.5229C63.643 40.5313 63.5905 40.5385 63.5394 40.5446C63.5252 40.5469 63.5105 40.5491 63.4963 40.5509C63.4327 40.5579 63.3697 40.5646 63.3061 40.5709C63.2852 40.5726 63.2653 40.574 63.2439 40.5758C63.195 40.5798 63.1462 40.5833 63.0986 40.5863C63.0786 40.5873 63.0595 40.5886 63.0408 40.5895C62.9772 40.5931 62.9142 40.5953 62.8497 40.597C62.832 40.597 62.8142 40.597 62.7964 40.5975C62.7462 40.598 62.6973 40.598 62.6476 40.598C62.6262 40.5975 62.6054 40.5975 62.584 40.597C62.521 40.5957 62.4565 40.594 62.393 40.5913C62.3818 40.5908 62.3707 40.5895 62.3597 40.5891C62.304 40.5864 62.2485 40.5828 62.193 40.5784C62.1721 40.577 62.1508 40.5753 62.1299 40.5731C62.0765 40.5686 62.0233 40.5637 61.9708 40.5575C61.9574 40.5558 61.9441 40.5544 61.9313 40.553C61.8677 40.546 61.8033 40.5371 61.7397 40.5273C61.7198 40.5246 61.6997 40.5211 61.6797 40.518C61.6308 40.5108 61.582 40.5024 61.5322 40.4935C61.5144 40.4905 61.4967 40.4868 61.4788 40.4833C61.4154 40.4718 61.3522 40.4584 61.29 40.4451C61.2723 40.4411 61.2554 40.4376 61.2389 40.4336C61.19 40.422 61.1398 40.4105 61.0909 40.398C61.0709 40.3931 61.051 40.3882 61.031 40.3824C60.9687 40.3665 60.9065 40.3491 60.8443 40.3309C60.8345 40.3282 60.8244 40.3247 60.8146 40.322C60.7603 40.3051 60.7057 40.2882 60.6524 40.27C60.6324 40.2642 60.6123 40.2576 60.5923 40.2509C60.54 40.2331 60.4879 40.215 60.4368 40.1954C60.4244 40.1914 60.4133 40.1874 60.4013 40.183C60.34 40.1602 60.2799 40.1358 60.2191 40.1114C60.2013 40.1038 60.1822 40.0958 60.1645 40.0882C60.1169 40.0683 60.0689 40.0483 60.0223 40.0269C60.0058 40.0189 59.9902 40.0127 59.9734 40.0047C59.9134 39.9776 59.8547 39.9492 59.7957 39.9198C59.7801 39.9128 59.7659 39.9047 59.7503 39.8972C59.7036 39.8737 59.657 39.8492 59.6104 39.8243C59.5925 39.815 59.5748 39.8052 59.557 39.7959C59.4992 39.7639 59.4402 39.731 59.3824 39.6968C59.3748 39.6919 59.3668 39.687 59.3579 39.6821C59.3069 39.652 59.257 39.6208 59.2069 39.5888C59.1891 39.5781 59.1726 39.567 59.1549 39.5559C59.106 39.5243 59.0571 39.4914 59.0083 39.4586C58.9994 39.4529 58.9904 39.4466 58.9815 39.4404C58.926 39.4017 58.8705 39.3618 58.8158 39.3208C58.8003 39.3098 58.7847 39.2982 58.7696 39.2867C58.726 39.2533 58.6816 39.2196 58.6381 39.1849C58.626 39.1751 58.6127 39.1644 58.5994 39.1543C58.5461 39.1111 58.4927 39.0667 58.4395 39.0209C58.4283 39.0112 58.4159 39.0005 58.4048 38.9898C58.3617 38.9525 58.3194 38.9142 58.2772 38.8756C58.2626 38.8627 58.2493 38.8498 58.235 38.8373C58.1826 38.7876 58.1306 38.7378 58.0782 38.6863L57.5462 38.1535C58.2195 37.9228 58.9335 37.8034 59.6668 37.8034C61.4131 37.8034 63.0564 38.4841 64.2917 39.7194L64.8205 40.2483C64.8081 40.2527 64.7948 40.2571 64.7827 40.2607ZM68.7065 35.3038C66.2913 32.8895 63.0817 31.5596 59.6668 31.5596C56.2518 31.5596 53.0426 32.8895 50.6275 35.3038C49.3135 36.6186 49.3135 38.7508 50.6275 40.0651L53.6633 43.1015C53.667 43.1046 53.6701 43.1081 53.6745 43.1122L60.3221 49.7603C62.7373 52.1749 65.947 53.5045 69.3619 53.5045C72.7769 53.5045 75.9861 52.1749 78.4012 49.7603L104.451 23.7112C105.765 22.3968 105.766 20.2646 104.451 18.9507C102.735 17.2341 100.581 16.0476 98.2224 15.5175C97.2947 15.3093 96.3504 15.2047 95.4093 15.2047C94.0264 15.2047 92.6467 15.4288 91.3256 15.8736C91.0136 15.9794 90.6981 16.0988 90.3835 16.233C88.8829 16.8746 87.532 17.7892 86.3709 18.9507L69.3619 35.9593L68.7065 35.3038ZM31.582 61.7741C31.1097 60.941 30.6808 60.0856 30.2943 59.2115L38.783 54.3111C39.1993 55.2549 39.6681 56.1797 40.1903 57.0839C40.7124 57.9896 41.2789 58.8582 41.889 59.6901L33.4003 64.5901C32.7418 63.6885 32.1338 62.7487 31.582 61.7741ZM11.8855 80.0443C10.4867 78.6436 9.28599 77.0647 8.30039 75.334C7.3628 73.6863 6.6442 71.9381 6.15413 70.1171L24.2656 59.6603C24.9041 61.3667 25.675 63.0215 26.5739 64.6092C27.5693 66.3666 28.7159 68.0317 29.9978 69.5884L11.8855 80.0443ZM37.4098 70.6472C37.4774 70.1038 37.3885 69.5616 37.1654 69.0774L45.8528 64.0618C46.4292 64.5759 47.0267 65.0691 47.648 65.5379C48.7234 66.3503 49.8463 67.0799 51.0141 67.7256C53.0279 68.8409 55.1734 69.7061 57.4262 70.3096C59.8458 70.9584 62.3077 71.2836 64.7792 71.2836C65.9456 71.2836 67.1135 71.2116 68.2807 71.0659C72.0534 70.5984 75.6483 69.3898 78.9655 67.4745C82.2827 65.5593 85.128 63.0495 87.4196 60.0167C89.6316 57.0884 91.238 53.7978 92.1912 50.2385C92.8178 47.9006 93.1421 45.5238 93.163 43.1353L86.2397 50.0589C85.4622 52.3994 84.317 54.5768 82.8284 56.5471C81.0029 58.9626 78.7358 60.9624 76.0882 62.4905C73.442 64.0196 70.5759 64.9824 67.572 65.3558C64.6681 65.7157 61.7566 65.5127 58.9158 64.7514C56.0753 63.9907 53.4514 62.7109 51.1171 60.9468C48.702 59.1213 46.7024 56.8541 45.1737 54.2071C43.6452 51.56 42.6822 48.6948 42.309 45.6904C41.9491 42.7869 42.1521 39.8749 42.9133 37.0342C43.6741 34.1933 44.9539 31.5703 46.718 29.2355C48.5434 26.8204 50.8105 24.8208 53.4581 23.2926C56.1042 21.7639 58.9705 20.8004 61.9744 20.4273C62.904 20.3124 63.8341 20.2544 64.7636 20.2544C66.7357 20.2544 68.6998 20.5149 70.6306 21.0313C72.0281 21.4056 73.3723 21.9061 74.6565 22.5274L78.9122 18.2716C76.7882 17.0532 74.5157 16.1147 72.12 15.4732C68.5599 14.5199 64.9081 14.265 61.2655 14.7178C57.4929 15.1853 53.898 16.3934 50.5809 18.3091C47.2623 20.2248 44.4184 22.7336 42.1268 25.7668C39.9138 28.6952 38.3084 31.9848 37.3552 35.5451C36.7508 37.7985 36.4278 40.0887 36.3864 42.3906C36.362 43.7245 36.4323 45.062 36.5988 46.3991C36.6944 47.171 36.8219 47.9362 36.9797 48.6925L28.2924 53.7076C27.9849 53.2726 27.5583 52.9242 27.0548 52.7113C26.6949 52.5602 26.3128 52.4852 25.9328 52.4852C25.4319 52.4852 24.933 52.6154 24.4877 52.8726L1.44514 66.1757C0.392884 66.7835 -0.16703 67.9833 0.0441039 69.1795C0.603108 72.3559 1.69484 75.3864 3.2879 78.1868C4.94102 81.0921 7.07841 83.6547 9.64239 85.8045C10.1756 86.2511 10.8355 86.4795 11.4998 86.4795C11.9966 86.4795 12.4952 86.352 12.944 86.0934L35.9866 72.79C36.7699 72.3368 37.2965 71.5449 37.4098 70.6472ZM87.4898 88.2095H61.9441C60.3555 88.2095 59.0668 89.4986 59.0668 91.0867C59.0668 92.6758 60.3555 93.9635 61.9441 93.9635H87.4898C89.0792 93.9635 90.3671 92.6758 90.3671 91.0867C90.3671 89.4986 89.0792 88.2095 87.4898 88.2095ZM87.4898 77.0759H47.2778C45.6893 77.0759 44.4007 78.3636 44.4007 79.9532C44.4007 81.5418 45.6893 82.8295 47.2778 82.8295H87.4898C89.0792 82.8295 90.3671 81.5418 90.3671 79.9532C90.3671 78.3636 89.0792 77.0759 87.4898 77.0759ZM103.692 0.930382H25.6706C24.082 0.930382 22.7933 2.21812 22.7933 3.80846V47.3225C23.791 46.9337 24.8565 46.7306 25.9328 46.7306C26.7393 46.7306 27.5315 46.8413 28.2982 47.0604L28.5479 46.9155V6.68539H100.815V10.2551C102.893 10.8876 104.839 11.8795 106.57 13.1855V3.80846C106.57 2.21812 105.281 0.930382 103.692 0.930382ZM100.815 103.246H28.5479V83.7293L22.7933 87.0511V106.123C22.7933 107.711 24.082 109 25.6706 109H103.692C105.281 109 106.57 107.711 106.57 106.123V29.7292L100.815 35.4838V103.246Z" fill="#3F6A98"/>
</svg>
