<svg width="94" height="109" viewBox="0 0 94 109" fill="none" xmlns="http://www.w3.org/2000/svg">
<path d="M41.2045 18.0975L46.7821 16.1136L52.3602 18.0975L52.1972 12.1799L55.8072 7.48737L50.1295 5.814L46.7821 0.930382L43.4356 5.814L37.7566 7.48737L41.3671 12.1799L41.2045 18.0975ZM2.51668 37.9762C4.92379 39.3653 8.0015 38.541 9.3915 36.1343C10.7806 33.7276 9.95631 30.65 7.54909 29.26C5.14198 27.8704 2.06472 28.6952 0.67529 31.1018C-0.714712 33.5086 0.110031 36.5866 2.51668 37.9762ZM25.1945 20.3306C27.6016 18.9416 28.4263 15.8633 27.0363 13.4562C25.6468 11.0502 22.5692 10.2255 20.162 11.6145C17.7553 13.0046 16.9306 16.0817 18.3201 18.4888C19.7101 20.896 22.7877 21.7207 25.1945 20.3306ZM91.0474 37.9762C93.4545 36.5866 94.2793 33.5086 92.8892 31.1018C91.5002 28.6952 88.423 27.8704 86.0148 29.26C83.6088 30.65 82.7841 33.7276 84.1731 36.1343C85.5632 38.541 88.6403 39.3653 91.0474 37.9762ZM68.3699 20.3306C70.777 21.7207 73.8542 20.896 75.2437 18.4888C76.6337 16.0817 75.8094 13.0046 73.4023 11.6145C70.9961 10.2255 67.9175 11.0502 66.5275 13.4562C65.1388 15.8633 65.9631 18.9416 68.3699 20.3306ZM46.7821 36.0157C49.7682 36.0157 52.2305 37.6377 53.4889 38.6645L52.7557 46.0152C52.6077 47.5003 51.9172 48.8685 50.8103 49.8701C49.7051 50.8713 48.2743 51.4222 46.7821 51.4222C45.2904 51.4222 43.8596 50.8713 42.7535 49.8701C41.6474 48.8685 40.9574 47.5003 40.8089 46.0152L40.0753 38.6645C41.3343 37.6377 43.796 36.0157 46.7821 36.0157ZM38.7098 54.3377C40.9263 56.344 43.7929 57.4483 46.7821 57.4483C49.7718 57.4483 52.6389 56.344 54.8554 54.3377C57.0714 52.3314 58.4548 49.5883 58.7525 46.6143L59.7679 36.44L58.8525 35.43C58.7222 35.2856 57.5171 33.9827 55.5064 32.6914C52.7527 30.9241 49.7349 29.9892 46.7821 29.9892C43.8288 29.9892 40.8126 30.9241 38.0584 32.6914C36.0472 33.9827 34.842 35.2856 34.7119 35.43L33.7969 36.44L34.8123 46.6143C35.1096 49.5883 36.4938 52.3314 38.7098 54.3377ZM65.1357 84.6412L61.4084 100.227C59.7488 100.873 58.0378 101.41 56.3049 101.831C53.1868 102.589 49.9829 102.973 46.7821 102.973C44.5221 102.973 42.2402 102.78 40.0007 102.399C37.319 101.94 34.6861 101.212 32.1563 100.227L28.4285 84.6412C27.6508 80.8765 28.5934 77.0083 31.0178 74.0231C32.1386 72.6433 33.5089 71.5347 35.0389 70.7406L44.0506 92.5451C44.5079 93.6507 45.5859 94.3719 46.7821 94.3719C47.9788 94.3719 49.0573 93.6507 49.5141 92.5451L58.5259 70.7406C60.0558 71.5347 61.4267 72.6433 62.5459 74.0231C64.9714 77.0083 65.9134 80.8765 65.1357 84.6412ZM40.9173 69.3097H52.6469C52.6713 69.3097 52.6958 69.3106 52.7201 69.3106L46.7821 83.6769L40.8445 69.3106C40.869 69.3106 40.8935 69.3097 40.9173 69.3097ZM52.6469 63.2842H48.4441C47.894 63.3352 47.3394 63.3606 46.7821 63.3606C46.2254 63.3606 45.6704 63.3352 45.1207 63.2842H40.9173C35.2348 63.2842 29.922 65.8134 26.34 70.2251C22.758 74.6355 21.3724 80.3553 22.5385 85.9166L27.0053 104.596L28.417 105.205C31.7955 106.664 35.3518 107.718 38.9871 108.338C41.5604 108.777 44.1834 109 46.7821 109C50.4619 109 54.1457 108.559 57.7282 107.687C60.2656 107.071 62.762 106.237 65.1477 105.205L66.56 104.596L71.0067 86.001L71.0258 85.9166C72.1922 80.3553 70.8071 74.6355 67.2242 70.2251C63.6427 65.8134 58.3294 63.2842 52.6469 63.2842ZM15.745 52.8802C16.7102 52.8802 17.5695 53.2903 18.1788 53.6889L17.8371 57.1119C17.7291 58.1903 16.8297 59.0049 15.745 59.0049C14.6603 59.0049 13.7609 58.1903 13.6534 57.1119L13.3117 53.6889C13.92 53.2903 14.7803 52.8802 15.745 52.8802ZM8.02414 50.4424L7.14343 51.4143L7.77046 57.6984C7.96817 59.6799 8.89017 61.5076 10.3673 62.8443C11.8434 64.1805 13.7533 64.9171 15.745 64.9171C17.7362 64.9171 19.6465 64.1805 21.1232 62.8443C22.5993 61.5076 23.5214 59.6799 23.7191 57.6984L24.3466 51.4143L23.4658 50.4424C23.1436 50.0869 20.1922 46.9684 15.745 46.9684C11.2982 46.9684 8.34585 50.0869 8.02414 50.4424ZM12.4336 65.7659C8.85605 65.7659 5.50999 67.3585 3.25429 70.1371C0.998705 72.9144 0.125958 76.516 0.86049 80.0175L3.53254 91.1934L4.89137 91.7804C8.29033 93.2467 12.0434 94.0218 15.745 94.0218C16.6182 94.0218 17.494 93.9782 18.3677 93.8929L16.9759 88.0731C16.5653 88.0975 16.1552 88.1108 15.745 88.1108C13.3227 88.1108 10.8721 87.6873 8.57916 86.8786L6.63903 78.7676C6.28581 77.0279 6.72355 75.2429 7.84372 73.8632C8.97106 72.4745 10.6441 71.6782 12.4336 71.6782H18.5098C19.3617 69.846 20.4451 68.1063 21.7506 66.4978C21.847 66.3801 21.9438 66.2622 22.0426 66.1468C21.0792 65.8969 20.0771 65.7659 19.0565 65.7659H12.4336ZM77.7882 52.8802C78.752 52.8802 79.6132 53.2903 80.2223 53.6889L79.8797 57.1119C79.7718 58.1903 78.8733 59.0049 77.7882 59.0049C76.7035 59.0049 75.8036 58.1903 75.6961 57.1119L75.3553 53.6889C75.9627 53.2903 76.8234 52.8802 77.7882 52.8802ZM70.0674 50.4424L69.1861 51.4143L69.8136 57.6984C70.0113 59.6799 70.9339 61.5076 72.41 62.8443C73.8867 64.1805 75.7961 64.9171 77.7882 64.9171C79.7797 64.9171 81.6897 64.1805 83.1663 62.8443C84.6417 61.5076 85.5643 59.6799 85.7622 57.6984L86.3902 51.4143L85.5086 50.4424C85.1866 50.0869 82.2346 46.9684 77.7882 46.9684C73.341 46.9684 70.3895 50.0869 70.0674 50.4424ZM81.0993 65.7659H74.4763C73.4654 65.7659 72.4722 65.8934 71.5169 66.1391C71.6169 66.2578 71.7159 66.3769 71.8132 66.4978C73.1202 68.1063 74.203 69.846 75.0548 71.6782H81.0993C82.8876 71.6782 84.561 72.4745 85.6895 73.8632C86.81 75.2429 87.2479 77.0279 86.8941 78.7676L84.9546 86.8786C82.6601 87.6873 80.2098 88.1108 77.7882 88.1108C77.3891 88.1108 76.9892 88.0975 76.5893 88.0752L75.197 93.8964C76.0604 93.9796 76.9261 94.0218 77.7882 94.0218C81.4895 94.0218 85.2435 93.2467 88.6415 91.7804L89.9997 91.1934L92.6537 80.0989L92.6719 80.0175C93.4068 76.516 92.5342 72.9144 90.2796 70.1371C88.0226 67.3585 84.6781 65.7659 81.0993 65.7659Z" fill="#0082BB"/>
</svg>
