<svg width="119" height="109" viewBox="0 0 119 109" fill="none" xmlns="http://www.w3.org/2000/svg">
<path d="M112.896 66.5036C112.896 67.031 112.466 67.4611 111.94 67.4611C111.412 67.4611 110.982 67.031 110.982 66.5036V61.8853V48.0456V43.4272C110.982 42.8993 111.412 42.4696 111.94 42.4696C112.466 42.4696 112.896 42.8993 112.896 43.4272V66.5036ZM99.8255 59.2604V50.6708H105.732V59.2604H99.8255ZM90.2253 61.9541V47.9762H94.5756V61.9541H90.2253ZM81.8023 66.72H36.3437C34.5939 66.72 33.171 65.2966 33.171 63.5472V46.3836C33.171 44.6341 34.5939 43.2109 36.3437 43.2109H38.6011H79.5458H81.8023C83.5518 43.2109 84.975 44.6341 84.975 46.3836V63.5472C84.975 65.2966 83.5518 66.72 81.8023 66.72ZM76.921 75.8227C76.921 76.8351 76.0975 77.658 75.0857 77.658H74.0202H44.1255H43.0612C42.0494 77.658 41.2259 76.8351 41.2259 75.8227V71.9701H76.921V75.8227ZM46.7508 92.5714V82.9073H71.3952V92.5714H59.073H46.7508ZM76.921 101.915C76.921 102.926 76.0975 103.75 75.0857 103.75H43.0612C42.0494 103.75 41.2259 102.926 41.2259 101.915V97.8211H44.1255H59.073H76.921V101.915ZM23.5713 61.8853V47.9762H27.9209V61.9541H23.5713V61.8853ZM12.4147 59.2604V50.6708H18.3212V59.2604H12.4147ZM7.16456 66.5036C7.16456 67.031 6.7357 67.4611 6.20695 67.4611C5.679 67.4611 5.25013 67.031 5.25013 66.5036V43.4272C5.25013 42.8993 5.679 42.4696 6.20695 42.4696C6.7357 42.4696 7.16456 42.8993 7.16456 43.4272V48.0456V61.8853V66.5036ZM41.2259 34.108C41.2259 33.0967 42.0494 32.2732 43.0612 32.2732H44.1255H74.0202H75.0857C76.0975 32.2732 76.921 33.0967 76.921 34.108V37.9606H41.2259V34.108ZM71.3952 17.3604V27.023H46.7508V17.3604H71.3952ZM41.2259 8.01521C41.2259 7.0039 42.0494 6.1803 43.0612 6.1803H75.0857C76.0975 6.1803 76.921 7.0039 76.921 8.01521V12.1093H74.0202H44.1255H41.2259V8.01521ZM111.94 37.2199C108.517 37.2199 105.732 40.0047 105.732 43.4272V45.4206H99.8255V45.3509V40.8996C99.8255 39.4497 98.6504 38.2743 97.2011 38.2743C95.7507 38.2743 94.5756 39.4497 94.5756 40.8996V42.726H89.3885C88.0754 40.0127 85.3484 38.1069 82.1711 37.9691V34.108C82.1711 30.7375 79.8049 27.9091 76.6455 27.1963V17.3604H79.5458C80.9958 17.3604 82.1711 16.1841 82.1711 14.7349V8.01521C82.1711 4.10877 78.9926 0.930382 75.0857 0.930382H43.0612C39.1544 0.930382 35.9758 4.10877 35.9758 8.01521V14.7349C35.9758 16.1841 37.1511 17.3604 38.6011 17.3604H41.5007V27.1963C38.3421 27.9091 35.9758 30.7375 35.9758 34.108V37.9691C32.7978 38.1069 30.0702 40.0127 28.7571 42.726H23.5713V40.8996C23.5713 39.4497 22.396 38.2743 20.9465 38.2743C19.4966 38.2743 18.3212 39.4497 18.3212 40.8996V45.3509V45.4206H12.4147V43.4272C12.4147 40.0047 9.63071 37.2199 6.20695 37.2199C2.78399 37.2199 0 40.0047 0 43.4272V66.5036C0 69.926 2.78399 72.7114 6.20695 72.7114C9.63071 72.7114 12.4147 69.926 12.4147 66.5036V64.5101H18.3212V64.5794V69.0306C18.3212 70.4806 19.4966 71.6559 20.9465 71.6559C22.396 71.6559 23.5713 70.4806 23.5713 69.0306V67.2044H28.7571C30.0702 69.918 32.7978 71.8248 35.9758 71.9612V75.8227C35.9758 79.1933 38.3421 82.0217 41.5007 82.734V92.5714H38.6011C37.1511 92.5714 35.9758 93.7463 35.9758 95.1953V101.915C35.9758 105.821 39.1544 109 43.0612 109H75.0857C78.9926 109 82.1711 105.821 82.1711 101.915V95.1953C82.1711 94.4994 81.8942 93.8316 81.4011 93.3401C80.9091 92.8478 80.2412 92.5714 79.5458 92.5714H76.6455V82.734C79.8049 82.0217 82.1711 79.1933 82.1711 75.8227V71.9612C85.3484 71.8248 88.0754 69.918 89.3885 67.2044H94.5756V69.0306C94.5756 70.4806 95.7507 71.6559 97.2011 71.6559C98.6504 71.6559 99.8255 70.4806 99.8255 69.0306V64.5794V64.5101H105.732V66.5036C105.732 69.926 108.517 72.7114 111.94 72.7114C115.361 72.7114 118.147 69.926 118.147 66.5036V43.4272C118.147 40.0047 115.361 37.2199 111.94 37.2199Z" fill="#FF585D"/>
<path d="M39.0833 46.1854L37.3746 49.1436L39.0833 52.1022H42.4991L44.2068 49.1436L42.4991 46.1854H39.0833Z" fill="#FF585D"/>
<path d="M57.3653 46.1854L55.6567 49.1436L57.3653 52.1022H60.7816L62.4889 49.1436L60.7816 46.1854H57.3653Z" fill="#FF585D"/>
<path d="M75.6478 46.1854L73.9402 49.1436L75.6478 52.1022H79.0637L80.7713 49.1436L79.0637 46.1854H75.6478Z" fill="#FF585D"/>
<path d="M39.0833 57.8282L37.3746 60.7868L39.0833 63.745H42.4991L44.2068 60.7868L42.4991 57.8282H39.0833Z" fill="#FF585D"/>
<path d="M57.3653 57.8282L55.6567 60.7868L57.3653 63.745H60.7816L62.4889 60.7868L60.7816 57.8282H57.3653Z" fill="#FF585D"/>
<path d="M75.6478 57.8282L73.9402 60.7868L75.6478 63.745H79.0637L80.7713 60.7868L79.0637 57.8282H75.6478Z" fill="#FF585D"/>
</svg>
