<svg width="91" height="109" viewBox="0 0 91 109" fill="none" xmlns="http://www.w3.org/2000/svg">
<path d="M53.6323 26.6449C53.6323 25.0558 52.3436 23.7677 50.755 23.7677H40.2777C38.6883 23.7677 37.4004 25.0558 37.4004 26.6449C37.4004 28.2339 38.6883 29.5222 40.2777 29.5222H50.755C52.3436 29.5222 53.6323 28.2339 53.6323 26.6449ZM77.6582 79.148C77.3955 80.9397 76.4015 82.5736 74.9306 83.6303L70.4417 86.8532L73.9655 76.7048L77.699 78.8613L77.6582 79.148ZM62.3263 92.6793L56.0976 97.1501L58.6905 77.3617C58.7824 77.2484 58.8735 77.1323 58.9615 77.0159L63.6394 70.7437L68.8917 73.7756L62.3263 92.6793ZM50.894 75.334H40.0049C38.6638 75.334 37.3716 74.6763 36.55 73.5756L28.1243 62.2799C28.0155 62.1333 27.9155 61.9808 27.8248 61.8222H35.7741C37.6417 61.8222 39.4192 60.9365 40.5288 59.4524L44.7783 53.7729C45.0151 53.4565 45.3529 53.4081 45.5336 53.4068C45.7136 53.4073 46.0527 53.4507 46.2935 53.7649L50.6959 59.5071C51.8082 60.9566 53.57 61.8222 55.4097 61.8222H63.0742C62.983 61.9808 62.8826 62.1333 62.7737 62.2799L54.3491 73.5756C53.5269 74.6763 52.2356 75.334 50.894 75.334ZM49.6916 101.749L49.3632 101.985C47.0223 103.666 43.8762 103.666 41.5358 101.985L41.3246 101.832L38.5993 80.9877C39.0646 81.0543 39.5348 81.0885 40.0049 81.0885H50.894C51.4024 81.0885 51.9103 81.0485 52.4138 80.9707L49.6916 101.749ZM28.5767 92.6816L22.1037 73.7809L27.2903 70.7859L31.9375 77.0159C32.0672 77.1892 32.2028 77.358 32.3436 77.5239L34.9201 97.2354L28.5767 92.6816ZM15.9679 83.6303C14.497 82.5736 13.5025 80.9397 13.2417 79.148L13.2074 78.9169L17.0241 76.7129L20.5114 86.891L15.9679 83.6303ZM25.4217 36.4925C29.992 37.0897 36.4553 37.6629 45.4492 37.6629C54.4232 37.6629 60.8918 37.0937 65.4782 36.4983L65.2493 39.4159H25.6496L25.4217 36.4925ZM66.2825 45.1704C66.2891 45.1704 66.2953 45.1704 66.3033 45.1704C66.4322 45.1749 66.5447 45.231 66.6366 45.3366C66.6974 45.4073 66.7974 45.5588 66.7743 45.7761L65.7643 55.202C65.7479 55.3678 65.7398 55.5135 65.7368 55.6349C65.7293 55.8396 65.5115 56.0676 65.2115 56.0676H55.4097C55.3364 56.0676 55.2853 56.0347 55.2631 56.0063L50.8607 50.2643C49.5863 48.6027 47.6502 47.6523 45.5404 47.6523C45.5271 47.6523 45.5128 47.6523 45.4995 47.6523C43.3754 47.6651 41.4322 48.6391 40.1716 50.3256L35.9221 56.0054C35.8985 56.0366 35.8444 56.0676 35.7741 56.0676H25.7918C25.492 56.0676 25.2742 55.8396 25.2675 55.6366C25.2631 55.5149 25.2564 55.3678 25.2382 55.202L24.2299 45.7761C24.2064 45.5588 24.3055 45.4073 24.3677 45.3366C24.4596 45.231 24.5708 45.1749 24.7018 45.1704C24.7072 45.1704 24.7143 45.1704 24.7205 45.1704H66.2825ZM20.6626 29.9403L20.6515 29.939C20.6212 29.9332 20.6026 29.9306 20.5835 29.8843C20.5648 29.839 20.5759 29.8243 20.5951 29.799L22.3578 27.4025C22.5733 27.1088 22.7324 26.7773 22.8244 26.4245C23.7332 22.9411 25.475 19.6594 27.8604 16.9361C29.2322 15.3685 30.8163 13.9863 32.5485 12.834L32.5369 19.8369C32.5351 21.4249 33.8211 22.7159 35.4097 22.7185H35.4141C37.0018 22.7185 38.2897 21.4329 38.2914 19.846L38.3105 8.20859C38.4336 7.34631 39.1881 6.68425 40.0679 6.68425H50.935C51.8148 6.68425 52.5693 7.34631 52.6938 8.20859L52.7124 19.846C52.7146 21.4329 54.0024 22.7185 55.5888 22.7185H55.5941C57.1828 22.7159 58.4691 21.4249 58.4661 19.8369L58.4545 12.834C60.1866 13.9863 61.7708 15.3685 63.1425 16.9361C65.5293 19.6594 67.2699 22.9411 68.1799 26.4245C68.2718 26.7773 68.4296 27.1088 68.646 27.4025L70.4039 29.7924C70.4225 29.8172 70.4323 29.8314 70.415 29.8768C70.3959 29.9239 70.3773 29.9265 70.3448 29.9323L70.3248 29.9354C66.2655 30.6255 58.7092 31.9088 45.4492 31.9088C32.2205 31.9088 24.7018 30.6286 20.6626 29.9403ZM87.7329 22.4949C84.2167 20.5854 80.5753 18.9166 76.8384 17.5003C77.5226 18.9382 78.1079 20.4216 78.5869 21.935L79.4627 23.1269C79.986 23.8383 80.4229 24.6071 80.7664 25.4135C82.1929 26.0855 83.6001 26.7982 84.9857 27.5513C85.0994 27.6128 85.1609 27.742 85.1426 27.8735L78.5936 72.7322L73.8686 70.0038C73.8597 69.9994 73.8509 69.9949 73.8434 69.9891L67.1045 66.0992L67.3867 65.7202C68.5705 64.1329 69.2797 62.203 69.4183 60.2189C69.4641 60.1789 69.508 60.138 69.553 60.0958C70.7439 58.9689 71.4304 57.4563 71.4869 55.8357C71.4882 55.8224 71.4882 55.809 71.489 55.7957L72.4956 46.3884C72.6822 44.6448 72.1298 42.886 70.9794 41.5623C70.9416 41.5183 70.9025 41.4751 70.8633 41.4329L70.878 41.2481L71.3188 35.6033C73.3301 35.2581 74.9854 33.9236 75.7497 32.0328C76.5148 30.1393 76.2491 28.0268 75.0387 26.3818L73.5984 24.4244C72.4289 20.2851 70.3181 16.3957 67.4734 13.1445C64.8582 10.1584 61.6242 7.71146 58.0537 6.0051C57.6493 4.83795 56.9597 3.77773 56.0296 2.92228C54.6343 1.63795 52.8244 0.930382 50.935 0.930382H40.0679C38.1781 0.930382 36.37 1.63795 34.9742 2.92228C34.0446 3.77773 33.3536 4.83795 32.9501 6.0051C29.3801 7.71146 26.1461 10.1584 23.5309 13.1445C20.6848 16.3957 18.574 20.2851 17.4054 24.4244L15.9603 26.3885C14.7489 28.0336 14.4837 30.146 15.248 32.0395C15.9998 33.8996 17.6143 35.2203 19.5792 35.5917L20.0205 41.2383L20.0436 41.5395C20.0373 41.5471 20.0307 41.5542 20.0235 41.5623C18.874 42.886 18.3208 44.6443 18.5074 46.388L19.5153 55.7965C19.5153 55.809 19.5161 55.8219 19.5161 55.8357C19.5729 57.4563 20.2596 58.9689 21.4499 60.0958C21.458 60.1034 21.4669 60.11 21.4744 60.1181C21.5958 62.1364 22.308 64.1062 23.5118 65.7202L23.8264 66.1414L17.1752 69.9816C17.1646 69.9882 17.1521 69.9949 17.1401 70.0017L12.3129 72.7891L5.75721 27.8735C5.73719 27.742 5.80078 27.6128 5.91271 27.5513C7.34049 26.776 8.78998 26.0433 10.26 25.3535C10.5991 24.5715 11.0266 23.8254 11.5353 23.1336L12.4174 21.935C12.9004 20.4045 13.4941 18.9041 14.1881 17.4514C10.4066 18.879 6.72278 20.5638 3.1657 22.4949C0.9439 23.7024 -0.302542 26.1979 0.063188 28.705L7.22274 77.7549C7.22411 77.7647 7.22582 77.7749 7.22718 77.7846L7.54718 79.979C7.79017 81.6448 8.35805 83.2193 9.23216 84.6568C10.1075 86.0952 11.2451 87.3229 12.6129 88.3041L24.4885 96.8301C24.4922 96.8324 24.4952 96.8345 24.4997 96.8382L38.1795 106.66C40.3533 108.22 42.9022 109 45.4492 109C47.9968 109 50.5448 108.22 52.719 106.66L78.2857 88.3041C79.6539 87.3229 80.7903 86.0952 81.6662 84.6568C82.541 83.2193 83.1087 81.6448 83.351 79.979L83.6775 77.738C83.6797 77.7247 83.682 77.7113 83.6843 77.698L90.8351 28.705C91.2025 26.1979 89.9546 23.7024 87.7329 22.4949Z" fill="white"/>
</svg>
