<svg width="104" height="109" viewBox="0 0 104 109" fill="none" xmlns="http://www.w3.org/2000/svg">
<path d="M74.5102 13.4494C76.1131 14.3743 78.1615 13.8248 79.0858 12.2231C80.0114 10.6214 79.4627 8.57262 77.8607 7.64777C76.2574 6.72292 74.2089 7.27123 73.2846 8.87294C72.3595 10.4758 72.9083 12.5246 74.5102 13.4494ZM95.0866 30.6326C96.6883 29.7078 97.2377 27.6594 96.3117 26.0575C95.388 24.4556 93.3393 23.9067 91.7376 24.8314C90.1347 25.7561 89.5864 27.8047 90.5101 29.4066C91.4361 31.0085 93.4849 31.5573 95.0866 30.6326ZM99.7381 47.8771C97.8884 47.8771 96.388 49.3764 96.388 51.2268C96.388 53.0761 97.8884 54.5759 99.7381 54.5759C101.588 54.5759 103.087 53.0761 103.087 51.2268C103.087 49.3764 101.588 47.8771 99.7381 47.8771ZM95.1446 71.836C93.5418 70.9117 91.4941 71.4605 90.5693 73.0624C89.6444 74.6644 90.1927 76.7129 91.7944 77.6372C93.3973 78.5622 95.4449 78.0135 96.3709 76.4116C97.2946 74.8096 96.7463 72.7611 95.1446 71.836ZM10.3226 30.733C11.9245 31.6587 13.9731 31.109 14.8973 29.5071C15.443 28.5628 15.4763 27.4639 15.083 26.5307C14.8097 25.8806 14.3298 25.3118 13.6722 24.9319C12.0702 24.0071 10.0217 24.5559 9.09616 26.1578C8.4118 27.3429 8.53534 28.7725 9.29387 29.8106C9.56052 30.1754 9.90623 30.4927 10.3226 30.733ZM30.8558 13.5074C32.4577 12.5826 33.0065 10.5338 32.0809 8.9321C31.1566 7.32925 29.1082 6.78094 27.5061 7.70579C25.9042 8.63064 25.3554 10.6794 26.2797 12.2811C27.2053 13.8828 29.2539 14.4323 30.8558 13.5074ZM52.6749 7.62956C54.5249 7.62956 56.0247 6.13025 56.0247 4.28055C56.0247 2.43085 54.5249 0.930382 52.6749 0.930382C50.8256 0.930382 49.3258 2.43085 49.3258 4.28055C49.3258 6.13025 50.8256 7.62956 52.6749 7.62956ZM24.9813 79.4435L24.6458 79.7776L9.90486 65.0372C7.2178 62.3496 5.73668 58.7747 5.73668 54.9732C5.73668 51.1716 7.2178 47.5971 9.90486 44.9096L14.4543 40.3602C14.4165 45.6152 16.4526 50.7863 20.3043 54.6381L24.9813 59.3146C27.6697 62.003 29.1504 65.578 29.1504 69.3795C29.1504 73.1811 27.6697 76.7551 24.9813 79.4435ZM34.887 69.3795C34.887 66.7866 34.3951 64.2595 33.4242 61.8666C32.4186 59.3871 30.9433 57.1639 29.0383 55.2589L24.3614 50.582C20.3687 46.5903 19.1121 40.6108 21.1597 35.3483C21.5717 34.2884 21.3197 33.0846 20.5154 32.2808C19.7111 31.4764 18.5069 31.2232 17.4471 31.6351C14.8631 32.6398 12.5502 34.1506 10.5758 36.1258L5.84918 40.853C3.94374 42.758 2.46751 44.9811 1.4619 47.4603C0.492342 49.8532 0 52.3807 0 54.9732C0 57.566 0.492342 60.0936 1.4619 62.486C2.46751 64.9661 3.94374 67.1888 5.84918 69.0942L22.6182 85.8632C23.1781 86.4231 23.9126 86.7031 24.6458 86.7031C25.3799 86.7031 26.1144 86.4231 26.6743 85.8632L29.0383 83.4992C30.9433 81.5942 32.4186 79.3711 33.4242 76.8929C34.3951 74.4986 34.887 71.9715 34.887 69.3795ZM41.7836 60.5824C43.2323 60.5824 44.4778 59.488 44.6333 58.0148C44.7822 56.6031 45.2718 54.4834 46.7627 52.4029C48.3602 50.1745 50.3687 49.0049 51.7721 48.4165C53.2327 47.8038 53.9206 46.1232 53.3082 44.6622C52.6963 43.2011 51.0153 42.5132 49.5533 43.126C47.467 44.0014 44.48 45.7411 42.1004 49.0608C39.8795 52.1599 39.1485 55.3131 38.9277 57.4127C38.762 58.988 39.904 60.4002 41.4793 60.5664C41.5814 60.5766 41.6836 60.5824 41.7836 60.5824ZM19.3698 59.6123C18.4523 59.0346 17.6648 58.2992 17.0271 57.4261C16.3495 56.4965 15.8727 55.4553 15.6105 54.3311C15.2519 52.7887 13.7086 51.8289 12.1667 52.1884C10.6238 52.5469 9.66404 54.0894 10.0226 55.6317C10.4603 57.5105 11.2579 59.2524 12.3933 60.8077C13.4598 62.2697 14.7787 63.5005 16.3126 64.4661C16.7872 64.7656 17.3159 64.9078 17.8381 64.9078C18.7913 64.9078 19.7232 64.4337 20.2687 63.5686C21.113 62.2275 20.7109 60.4566 19.3698 59.6123ZM47.5861 83.1992C50.3012 81.2982 52.5875 78.9303 54.3813 76.1583C56.2401 73.289 57.4853 70.1127 58.0842 66.72L59.6062 58.0895C60.2861 54.2311 62.068 50.701 64.7586 47.8803C67.3848 45.1256 70.7206 43.193 74.4044 42.2923C75.5101 42.0221 76.3507 41.1245 76.5486 40.0043C76.7463 38.8844 76.2632 37.7531 75.3176 37.1208C72.3706 35.1518 69.0935 33.8387 65.5763 33.2189L56.8534 31.6809C53.4593 31.0824 50.0501 31.1668 46.7174 31.9319C43.5002 32.6701 40.4919 34.0085 37.7768 35.9095C35.0616 37.8105 32.7755 40.1798 30.9811 42.9505C30.1271 44.2685 29.4036 45.6508 28.8117 47.0892L33.0096 51.2867C33.1163 51.3933 33.2207 51.5009 33.3251 51.6089C34.5338 47.1506 37.2369 43.2908 41.0672 40.6091C45.3977 37.5762 50.6501 36.412 55.8566 37.33L64.5796 38.8685C65.2363 38.984 65.8815 39.1311 66.516 39.308C64.3453 40.5393 62.3533 42.0888 60.606 43.9209C57.1333 47.563 54.8337 52.1177 53.9561 57.0928L52.4341 65.7246C51.5166 70.9304 48.626 75.4672 44.2956 78.5001C42.1836 79.979 39.8529 81.0129 37.4146 81.5782C36.246 83.7361 34.7707 85.7099 33.0096 87.4718L32.6608 87.8197C32.7652 87.8206 32.8697 87.822 32.9741 87.822C34.8782 87.822 36.7734 87.6073 38.6455 87.1777C41.8628 86.4387 44.8711 85.0998 47.5861 83.1992ZM62.1644 103.141C62.1644 103.203 62.1023 103.263 62.0422 103.263H44.2245C44.1632 103.263 44.1023 103.203 44.1023 103.141V99.9722H62.1644V103.141ZM87.9017 36.1295C85.9507 31.5906 83.1731 27.5172 79.6457 24.0209C76.1188 20.5251 72.0204 17.7836 67.4648 15.8713C62.7457 13.8908 57.7408 12.892 52.5928 12.9056C47.4328 12.9182 42.4271 13.9408 37.7146 15.9441C33.1629 17.878 29.077 20.6411 25.5701 24.1569C24.6369 25.0918 23.7579 26.0676 22.9336 27.0817C23.4958 27.427 24.0157 27.8371 24.4868 28.3091C25.4679 29.2902 26.1699 30.4722 26.573 31.7417C27.5017 30.4997 28.5215 29.3204 29.6302 28.2091C32.6155 25.2181 36.0891 22.8678 39.9586 21.2236C43.9624 19.5218 48.218 18.6527 52.6075 18.6424C52.635 18.6424 52.6616 18.6424 52.6896 18.6424C57.0378 18.6424 61.2615 19.4899 65.2451 21.161C69.1187 22.7874 72.6062 25.1202 75.6078 28.0958C78.6081 31.0708 80.9721 34.5364 82.6319 38.3957C84.3484 42.3887 85.2329 46.6329 85.2591 51.0094C85.2887 55.7233 84.3338 60.2736 82.4208 64.5337C80.5736 68.6508 77.9363 72.2834 74.5813 75.3309C70.231 79.2813 67.7368 84.899 67.7368 90.7433V91.5315C67.7368 92.2478 67.4538 92.925 66.9405 93.4392C66.4258 93.9533 65.7482 94.2355 65.0328 94.2355H41.2339C40.5171 94.2355 39.8408 93.9533 39.3263 93.4392C39.1529 93.2651 39.0063 93.0717 38.8877 92.8669C36.948 93.2446 34.976 93.437 33.0096 93.4392C33.6585 96.2365 35.7024 98.5059 38.3655 99.4705V103.141C38.3655 106.372 40.994 109 44.2245 109H62.0422C65.2728 109 67.9012 106.372 67.9012 103.141V99.4705C71.1472 98.293 73.4736 95.1798 73.4736 91.5315V90.7433C73.4736 86.5133 75.2834 82.443 78.4384 79.5767C80.379 77.8135 82.1444 75.8463 83.6864 73.7276C85.2409 71.5902 86.5752 69.2875 87.6559 66.8835C89.9061 61.8675 91.03 56.5151 90.9959 50.9743C90.9651 45.8264 89.9243 40.8317 87.9017 36.1295Z" fill="#A4D65E"/>
</svg>
