<svg xmlns="http://www.w3.org/2000/svg" viewBox="0 0 164.91 300.55"><defs><style>.cls-1{fill:#a4ca62;}.cls-2{fill:#eb5961;}.cls-3{fill:#147dbb;}</style></defs><g id="Capa_2" data-name="Capa 2"><g id="Capa_8" data-name="Capa 8"><path class="cls-1" d="M59,123.21l.18,29.68,0,29.56L59.49,221c.19,33.07.38,39.35,1.22,43.07a63.82,63.82,0,0,0,9.09,21c1.62,2.55,10.82,11.9,13.76,14l1.8,1.35-20.53.13c-22,.11-26.23-.25-33-3C18.34,292,7.34,280.57,2.89,267.38.81,261.11.57,256.67.2,219.84,0,199.67,0,183.06,0,182.79h0l.05-7.22c.09-13.28,2.45-21.87,8.52-30.85,3.13-4.62,10.6-11.6,15.47-14.49,8-4.74,15.9-6.73,27.41-6.88Z"/><path class="cls-2" d="M76.34,218.19c.2,27.12.47,38,1,40.77,4.45,21.05,19.76,35.89,40.81,39.48,2.3.39,10.19.67,18.6.66,11.36-.05,15.61-.28,19.35-.36,4.65-.2,8.4,0,8.76-.2,0-.16-1.35-3.85-3.32-5.16l-.13-.07A49.4,49.4,0,0,1,139,267.72c-2.72-7.4-3.08-10.65-3.29-27.8-.11-9.84-.46-17.66-.88-19.71a53.33,53.33,0,0,0-9-19.69c-3.08-4.25-10.68-11-15.2-13.49a51.37,51.37,0,0,0-15.23-5.48c-3.31-.58-18.61-1-19.08-.5C76.2,181.14,76.21,197.85,76.34,218.19Z"/><path class="cls-2" d="M2.83,85.94C1.76,58.85,1.52,48,2,45.17,5.43,23.94,20,8.4,40.88,3.83,43.17,3.33,51,2.68,59.44,2.3c11.34-.48,16-1.16,19.66-.55,5.11-.13,8.19-.73,8.24-.2,0,.16.06,2.57-2.93,5.35A49.35,49.35,0,0,0,63.06,33.55c-2.37,7.51-2.58,10.77-2,27.92.35,9.83.37,17.66,0,19.72a53.15,53.15,0,0,1-8,20.1A62,62,0,0,1,38.5,115.47a51,51,0,0,1-14.95,6.18c-3.28.74-18.54,1.86-19,1.4C4.42,123,3.65,106.27,2.83,85.94Z"/><path class="cls-3" d="M135.68,178.22l-1.21-29.65L133.12,119l-1.55-38.52c-1.35-33-1.46-39.32-.8-43.08a64,64,0,0,1,8.1-21.39c1.5-2.62,10.25-12.39,13.09-14.62L153.7,0,133.19.83c-22,.92-26.2,1.47-32.86,4.56C87.14,11.5,76.69,23.45,72.87,36.84c-1.79,6.35-1.83,10.8-.47,47.61.74,20.16,1.47,36.75,1.57,37h0l.39,7.21c.71,13.26,3.46,21.72,9.95,30.42,3.34,4.46,11.13,11.08,16.14,13.75,8.23,4.35,16.18,6,27.69,5.59Z"/></g></g></svg>